<?xml version="1.0" encoding="UTF-8"?>
<svg width="200px" height="200px" viewBox="0 0 200 200" version="1.1" xmlns="http://www.w3.org/2000/svg">
    <g stroke="none" stroke-width="1" fill="none" fill-rule="evenodd">
        <g fill="#19FF81" fill-rule="nonzero">
            <!-- Head and face -->
            <path d="M100,30 C70,30 60,60 60,90 C60,120 80,140 100,140 C120,140 140,120 140,90 C140,60 130,30 100,30 Z"></path>
            <!-- Hair -->
            <path d="M100,30 C85,30 75,40 70,50 C80,45 90,45 100,45 C110,45 120,45 130,50 C125,40 115,30 100,30 Z"></path>
            <!-- Left eye -->
            <circle cx="85" cy="80" r="5" fill="#000000"></circle>
            <!-- Right eye -->
            <circle cx="115" cy="80" r="5" fill="#000000"></circle>
            <!-- Smile -->
            <path d="M85,100 C85,110 115,110 115,100" stroke="#000000" stroke-width="3" stroke-linecap="round"></path>
            <!-- Vault suit collar -->
            <path d="M80,140 L70,160 L100,170 L130,160 L120,140" fill="#19FF81"></path>
            <!-- Vault number -->
            <text x="92" y="160" font-family="Monofont, monospace" font-size="14" fill="#000000">13</text>
        </g>
    </g>
</svg> 